<?xml version="1.0" encoding="utf-8"?>
<svg viewBox="481 1 240 360" width="240" height="360" xmlns="http://www.w3.org/2000/svg">
  <g transform="matrix(4, 0, 0, 4, 1, -1328.448547)" id="g6571">
    <rect width="60" height="90" rx="10" ry="10" x="120" y="332.36218" id="rect2987-8" style="fill:#ffffff;fill-opacity:1;fill-rule:evenodd"/>
    <rect width="50" height="80" rx="5" ry="5" x="125" y="337.36218" id="rect3757-26" style="fill:#ff5555;fill-opacity:1;fill-rule:evenodd;stroke:none"/>
    <path d="m 165,352.36217 c -22.09139,0 -40,17.90861 -40,40 0,5.52285 4.47715,10 10,10 22.09139,0 40,-17.90861 40,-40 0,-5.52285 -4.47715,-10 -10,-10 z" id="path3773-0-4-8-4-60" style="fill:#ffffff;fill-opacity:1;fill-rule:evenodd;stroke:none"/>
    <path d="m 149,362.36218 c -5.54,0 -10,4.45999 -10,9.99999 l 0,1 5,0 0,-1 c 0,-2.77 2.23,-5 5,-5 2.77,0 5,2.23 5,5 0,1.1275 -0.93551,3.34015 -1.91245,4.10902 -5.30481,4.17494 -5.24881,3.48544 -13.08755,8.89098 l 0,7 10,0 10,0 0,-5 0,-2 -5,0 0,2 -5,0 -4,0 c 6.19007,-4.35874 6.6427,-4.25311 11.49308,-8.59375 1.55408,-1.39076 2.50692,-4.15105 2.50692,-6.40625 0,-5.54 -4.46,-9.99999 -10,-9.99999 z" id="rect3163-52-9-8-1-1-2-7-3-6-5" style="fill:#ff5555;fill-opacity:1;stroke:none"/>
    <path d="m 132.5,339.86217 c -2.77,0 -5,2.23 -5,5 l 0,0.5 2.5,0 0,-0.5 c 0,-1.385 1.115,-2.5 2.5,-2.5 1.385,0 2.5,1.115 2.5,2.5 0,0.56375 -0.46776,1.67007 -0.95623,2.05451 -2.6524,2.08747 -2.6244,1.74272 -6.54377,4.44549 l 0,3.5 5,0 5,0 0,-2.5 0,-1 -2.5,0 0,1 -2.5,0 -2,0 c 3.09503,-2.17937 3.32135,-2.12655 5.74654,-4.29687 0.77704,-0.69538 1.25346,-2.07553 1.25346,-3.20313 0,-2.77 -2.23,-5 -5,-5 z" id="rect3163-52-9-8-1-1-2-7-3-6-0-9" style="fill:#ffffff;fill-opacity:1;stroke:none"/>
    <path d="m 167.5,414.86217 c 2.77,0 5,-2.23 5,-5 l 0,-0.5 -2.5,0 0,0.5 c 0,1.385 -1.115,2.5 -2.5,2.5 -1.385,0 -2.5,-1.115 -2.5,-2.5 0,-0.56375 0.46776,-1.67007 0.95623,-2.05451 2.6524,-2.08747 2.6244,-1.74272 6.54377,-4.44549 l 0,-3.5 -5,0 -5,0 0,2.5 0,1 2.5,0 0,-1 2.5,0 2,0 c -3.09503,2.17937 -3.32135,2.12655 -5.74654,4.29687 -0.77704,0.69538 -1.25346,2.07553 -1.25346,3.20313 0,2.77 2.23,5 5,5 z" id="rect3163-52-9-8-1-1-2-7-3-6-0-4" style="fill:#ffffff;fill-opacity:1;stroke:none"/>
  </g>
</svg>