<?xml version="1.0" encoding="utf-8"?>
<svg viewBox="2641 1 242 362" width="242" height="362" xmlns="http://www.w3.org/2000/svg">
  <g transform="matrix(4, 0, 0, 4, 1, -1328.448547)" id="g6643">
    <rect width="60" height="90" rx="10" ry="10" x="660.25" y="332.60218" id="rect2987-8-5-81-25" style="fill:#ffffff;fill-opacity:1;fill-rule:evenodd;stroke:#000000;stroke-width:0.5;stroke-miterlimit:4;stroke-dasharray:none"/>
    <rect width="50" height="80" rx="5" ry="5" x="665" y="337.36218" id="rect3757-26-33-5-8" style="fill:#ff5555;fill-opacity:1;fill-rule:evenodd;stroke:none"/>
    <path d="m 705,352.36217 c -22.09139,0 -40,17.90861 -40,40 0,5.52285 4.47715,10 10,10 22.09139,0 40,-17.90861 40,-40 0,-5.52285 -4.47715,-10 -10,-10 z" id="path3773-0-4-8-4-60-3-86-6" style="fill:#ffffff;fill-opacity:1;fill-rule:evenodd;stroke:none"/>
    <path d="m 690,361.11217 2.5,2.5 -10,10 c -2.5,2.5 -2.5,7.5 0,10 l 5,-5 10,-10 2.5,2.5 0,-10 z" id="path5973-41" style="fill:#ff5555;stroke:none"/>
    <path d="m 690,393.61217 -2.5,-2.5 10,-10 c 2.5,-2.5 2.5,-7.5 0,-10 l -5,5 -10,10 -2.5,-2.5 0,10 z" id="path5973-4-6" style="fill:#ff5555;stroke:none"/>
    <path d="m 672.5,339.86216 1.25,1.25 -5,5 c -1.25,1.25 -1.25,3.75 0,5 l 2.5,-2.5 5,-5 1.25,1.25 0,-5 z" id="path5973-6-5" style="fill:#ffffff;stroke:none"/>
    <path d="m 672.5,356.11216 -1.25,-1.25 5,-5 c 1.25,-1.25 1.25,-3.75 0,-5 l -2.5,2.5 -5,5 -1.25,-1.25 0,5 z" id="path5973-4-3-5" style="fill:#ffffff;stroke:none"/>
    <path d="m 707.5,398.61216 1.25,1.25 -5,5 c -1.25,1.25 -1.25,3.75 0,5 l 2.5,-2.5 5,-5 1.25,1.25 0,-5 z" id="path5973-6-5-2" style="fill:#ffffff;stroke:none"/>
    <path d="m 707.5,414.86216 -1.25,-1.25 5,-5 c 1.25,-1.25 1.25,-3.75 0,-5 l -2.5,2.5 -5,5 -1.25,-1.25 0,5 z" id="path5973-4-3-5-8" style="fill:#ffffff;stroke:none"/>
  </g>
</svg>