<?xml version="1.0" encoding="utf-8"?>
<svg viewBox="3121 1441 242 362" width="242" height="362" xmlns="http://www.w3.org/2000/svg">
  <g transform="matrix(4, 0, 0, 4, 1, -1328.448547)" id="g6694">
    <rect width="60" height="90" rx="10" ry="10" x="780" y="692.36218" id="rect2987-8-5-81-2-1" style="fill:#ffffff;fill-opacity:1;fill-rule:evenodd;stroke:#000000;stroke-width:0.5;stroke-miterlimit:4;stroke-dasharray:none"/>
    <rect width="50" height="80" rx="5" ry="5" x="785" y="697.36218" id="rect3757-26-33-5-9-9" style="fill:#000000;fill-opacity:1;fill-rule:evenodd;stroke:none"/>
    <path d="m 825,712.36218 c -22.09139,0 -40,17.90861 -40,40 0,5.52285 4.47715,10 10,10 22.09139,0 40,-17.90861 40,-40 0,-5.52285 -4.47715,-10 -10,-10 z" id="path3773-0-4-8-4-60-3-86-5-6" style="fill:#ffffff;fill-opacity:1;fill-rule:evenodd;stroke:none"/>
    <path d="m 799.9,699.86217 -4.9,10 0,2.50001 6,0 0,2.50001 2.5,0 0,-2.50001 1.5,0 0,-2.50001 -1.5,0 0,-4.99999 -2.5,0 0,4.99999 -3.4,0 4.9,-10 z" id="rect3980-7-6-2-9-5-60-5-3-1-5" style="fill:#ffffff;fill-opacity:1;stroke:none"/>
    <path d="m 788.5,704.86216 0,2.50002 -2.5,0 0,2.49996 2.5,0 0,2.50002 2.5,0 0,-2.50002 2.5,0 0,-2.49996 -2.5,0 0,-2.50002 -2.5,0 z" id="rect5649-4" style="fill:#ffffff;fill-opacity:1;fill-rule:evenodd;stroke:none"/>
    <path d="m 820.1,774.86219 4.9,-10 0,-2.50001 -6,0 0,-2.50001 -2.5,0 0,2.50001 -1.5,0 0,2.50001 1.5,0 0,4.99999 2.5,0 0,-4.99999 3.4,0 -4.9,10 z" id="rect3980-7-6-2-9-5-60-5-3-1-8-9" style="fill:#ffffff;fill-opacity:1;stroke:none"/>
    <path d="m 831.5,769.8622 0,-2.50002 2.5,0 0,-2.49996 -2.5,0 0,-2.50002 -2.5,0 0,2.50002 -2.5,0 0,2.49996 2.5,0 0,2.50002 2.5,0 z" id="rect5649-1-1" style="fill:#ffffff;fill-opacity:1;fill-rule:evenodd;stroke:none"/>
    <g transform="translate(119.99999,429.99998)" id="g6111-38-2">
      <rect width="15" height="23.40037" rx="2.5" ry="2.3477995" x="762.46088" y="306.66135" transform="matrix(1,0,-0.27472185,0.96152374,0,0)" id="rect6095-2-9" style="fill:#ffffff;fill-opacity:1;fill-rule:evenodd;stroke:#000000;stroke-width:0.50990587;stroke-miterlimit:4;stroke-dasharray:none"/>
      <rect width="10" height="18.200279" rx="2.4999874" ry="2.3477879" x="764.96088" y="309.26141" transform="matrix(1,0,-0.27472185,0.96152374,0,0)" id="rect6097-5-7" style="fill:#ff5555;fill-opacity:1;fill-rule:evenodd;stroke:none"/>
    </g>
    <g transform="translate(129.99998,422.49998)" id="g6111-62-2-1">
      <rect width="15" height="23.40037" rx="2.5" ry="2.3477995" x="762.46088" y="306.66135" transform="matrix(1,0,-0.27472185,0.96152374,0,0)" id="rect6095-14-0-3" style="fill:#ffffff;fill-opacity:1;fill-rule:evenodd;stroke:#000000;stroke-width:0.50990587;stroke-miterlimit:4;stroke-dasharray:none"/>
      <rect width="10" height="18.200279" rx="2.4999874" ry="2.3477879" x="764.96088" y="309.26141" transform="matrix(1,0,-0.27472185,0.96152374,0,0)" id="rect6097-6-3-2" style="fill:#5555ff;fill-opacity:1;fill-rule:evenodd;stroke:none"/>
    </g>
    <g transform="translate(127.49999,437.49998)" id="g6111-3-5">
      <rect width="15" height="23.40037" rx="2.5" ry="2.3477995" x="762.46088" y="306.66135" transform="matrix(1,0,-0.27472185,0.96152374,0,0)" id="rect6095-0-3" style="fill:#ffffff;fill-opacity:1;fill-rule:evenodd;stroke:#000000;stroke-width:0.50990587;stroke-miterlimit:4;stroke-dasharray:none"/>
      <rect width="10" height="18.200279" rx="2.4999874" ry="2.3477879" x="764.96088" y="309.26141" transform="matrix(1,0,-0.27472185,0.96152374,0,0)" id="rect6097-7-4" style="fill:#ffaa00;fill-opacity:1;fill-rule:evenodd;stroke:none"/>
    </g>
    <g transform="translate(137.49998,429.99999)" id="g6111-62-7-3">
      <rect width="15" height="23.40037" rx="2.5" ry="2.3477995" x="762.46088" y="306.66135" transform="matrix(1,0,-0.27472185,0.96152374,0,0)" id="rect6095-14-8-2" style="fill:#ffffff;fill-opacity:1;fill-rule:evenodd;stroke:#000000;stroke-width:0.50990587;stroke-miterlimit:4;stroke-dasharray:none"/>
      <rect width="10" height="18.200279" rx="2.4999874" ry="2.3477879" x="764.96088" y="309.26141" transform="matrix(1,0,-0.27472185,0.96152374,0,0)" id="rect6097-6-7-1" style="fill:#55aa55;fill-opacity:1;fill-rule:evenodd;stroke:none"/>
    </g>
  </g>
</svg>